<?xml version="1.0" encoding="UTF-8"?>
<svg xmlns="http://www.w3.org/2000/svg">
 <defs>
  <linearGradient id="g" x1="11.922" x2="11.873" y1="-1.3084" y2="-1.3084" gradientTransform="translate(-331.42 73.067)">
   <stop stop-color="#d49c56" offset="0"/>
   <stop stop-color="#d49c56" stop-opacity=".258" offset="1"/>
  </linearGradient>
  <linearGradient id="i" x1="8.1461" x2="8.754" y1="-2.8527" y2="-2.8527" gradientTransform="translate(-199.99 52.32)">
   <stop stop-color="#9f5f09" offset="0"/>
   <stop stop-color="#9f5f09" stop-opacity="0" offset="1"/>
  </linearGradient>
  <linearGradient id="h" x1="8.3509" x2="8.4651" y1="-.31018" y2="-.31018" gradientTransform="translate(-331.42 73.067)">
   <stop stop-color="#d49c56" offset="0"/>
   <stop stop-color="#d49c56" stop-opacity="0" offset="1"/>
  </linearGradient>
  <linearGradient id="j" x1="-1.9029" x2=".7086" y1="-.26175" y2="-.26175">
   <stop stop-color="#fff" offset="0"/>
   <stop stop-color="#fff" stop-opacity="0" offset="1"/>
  </linearGradient>
  <radialGradient id="l" cx="-165.24" cy="33.695" r="21.607" gradientTransform="matrix(.82021 -.019612 .040061 1.6755 202.27 -12.766)" gradientUnits="userSpaceOnUse">
   <stop stop-color="#ffeed6" offset="0"/>
   <stop stop-color="#ffcd8b" offset="1"/>
  </radialGradient>
  <radialGradient id="k" cx="-164.86" cy="72.644" r="15.009" gradientTransform="matrix(.11836 .092878 -.24404 .311 105.77 82.271)" gradientUnits="userSpaceOnUse">
   <stop stop-color="#ffeed6" offset="0"/>
   <stop stop-color="#ffcd8b" offset="1"/>
  </radialGradient>
 </defs>
 <g fill-rule="evenodd">
  <path d="m6.7296 64.882c8.5134 0.081299 18.3-1.8734 20.252-10.268 1.9077-8.2015 0.91295-50.654 31.15-51.645 29.016-0.95116 36.592 23.32 39.086 36.612 8.0163 42.706-2.5234 71.462-63.259 54.153-6.888-3.9768-11.022-4.1641-15.705-10.479 4.1206 0.11258 6.2768 0.38872 6.8952-3.6722-5.4866 0.22398-10.855-0.27739-12.948-9.8054 10.002 1.3823 14.595-2.9453 18.862-9.5029-5.0646 7.9568-11.028 12.421-24.333 4.6075z"/>
  <path d="m27.555 57.189c4.4208-5.9145 5.7857-13.277 6.9232-21.94 3.06 8.4541 3.2996 16.882-2.2399 24.18"/>
  <path d="m2.6004 118.62c2.7927-7.7114 4.0292-18.026 13.643-22.806l44.594-13.541 46.574 12.853c8.1954 2.9422 12.069 14.888 15.987 23.923-2.5522 1.8322-4.752 4.5457-7.7871 5.1707h-105.68c-3.432-1.2735-5.1702-3.5631-7.3304-5.5996z" fill="#007fff" stroke="#000"/>
  <path d="m47.703 72.396c0.23771 5.7693 0.87025 11.094-1.8326 15.984l6.5159 36.041 14.966-0.2036 11.606-38.383-1.0181-16.494-30.238 3.0544z" fill="url(#k)" stroke="url(#g)"/>
  <path d="m37.11 41.413c0.5819 9.119 0.8372 18.238 2.8796 27.357 0 0 9.2869 10.442 14.47 12.742 5.1835 2.301 6.6343 1.989 11.519-0.071999 4.8844-2.061 16.198-12.095 16.198-12.095 4.8626-19.716 6.5261-38.38-15.118-49.386l-15.694 23.325-0.4319-9.0709-4.0316 6.9112c-2.7285-3.3125-7.9646-2.2118-9.7908 0.2879z" fill="url(#l)" stroke="url(#h)"/>
  <path d="m92.103 63.298c-4.1127 9.7072-15.214 13.559-25.758 11.81 10.214 8.0444 25.42 4.274 29.016-9.5703" fill="url(#i)"/>
  <path d="m37.058 41.461c0.9621 8.9721 1.4557 17.788 3.4799 27.114 5.1577 5.3491 15.701 17.02 21.957 13.462 3.9872-0.9086 5.1188-2.2252 7.4088-3.3763-13.766 4.0898-19.126-3.1803-26.222-11.508l-4.6841-27.223-1.9402 1.5307z" fill="url(#j)"/>
  <g fill="none" stroke="#000">
   <path d="m78.699 86.665l-11.25 37.721"/>
   <path d="m45.289 86.861l6.8877 37.628"/>
  </g>
 </g>
</svg>
